<svg width="30" height="30" viewBox="0 0 30 30" fill="none" xmlns="http://www.w3.org/2000/svg">
<circle cx="15" cy="15" r="15" fill="#EC1119"/>
<path d="M20.769 15C20.772 16.2084 20.2981 17.3692 19.4502 18.2302C19.3425 18.3369 19.1972 18.3969 19.0456 18.3974C18.894 18.3978 18.7484 18.3385 18.6401 18.2324C18.5319 18.1263 18.4697 17.9818 18.4672 17.8303C18.4646 17.6787 18.5217 17.5322 18.6263 17.4225C19.2602 16.7756 19.6152 15.906 19.6152 15.0003C19.6152 14.0946 19.2602 13.225 18.6263 12.578C18.5217 12.4683 18.4646 12.3218 18.4672 12.1703C18.4697 12.0187 18.5319 11.8742 18.6401 11.7681C18.7484 11.662 18.894 11.6027 19.0456 11.6032C19.1972 11.6036 19.3425 11.6636 19.4502 11.7704C20.2979 12.6312 20.7719 13.7918 20.769 15ZM20.5867 9.38651C20.475 9.28185 20.3263 9.22585 20.1733 9.23083C20.0203 9.23581 19.8756 9.30135 19.7709 9.41305C19.6663 9.52475 19.6103 9.67344 19.6152 9.82643C19.6202 9.97942 19.6858 10.1242 19.7975 10.2288C20.4664 10.8307 21.0013 11.5666 21.3674 12.3886C21.7335 13.2106 21.9227 14.1004 21.9227 15.0003C21.9227 15.9001 21.7335 16.7899 21.3674 17.6119C21.0013 18.4339 20.4664 19.1698 19.7975 19.7717C19.6858 19.8764 19.6204 20.0211 19.6154 20.174C19.6105 20.3269 19.6666 20.4756 19.7712 20.5872C19.8759 20.6988 20.0206 20.7643 20.1735 20.7692C20.3265 20.7741 20.4751 20.7181 20.5867 20.6134C21.3708 19.9036 21.9975 19.0374 22.4264 18.0706C22.8553 17.1038 23.0768 16.0579 23.0768 15.0003C23.0768 13.9426 22.8553 12.8967 22.4264 11.9299C21.9975 10.9631 21.3708 10.0963 20.5867 9.38651ZM17.3075 9.18459V20.8154C17.3048 21.0253 17.2453 21.2307 17.1353 21.4096C17.0252 21.5884 16.8687 21.7341 16.6824 21.831C16.4961 21.928 16.287 21.9726 16.0774 21.9602C15.8677 21.9477 15.6654 21.8787 15.4919 21.7604L10.7802 18.4615H8.65362C8.19459 18.4615 7.75436 18.2792 7.42978 17.9546C7.1052 17.63 6.92285 17.1898 6.92285 16.7307V13.2692C6.92285 12.8102 7.1052 12.3699 7.42978 12.0454C7.75436 11.7208 8.19459 11.5384 8.65362 11.5384H10.7796L15.4919 8.23959C15.6654 8.12124 15.8678 8.05218 16.0775 8.03975C16.2872 8.02733 16.4963 8.07201 16.6827 8.16904C16.869 8.26607 17.0255 8.41182 17.1355 8.59076C17.2455 8.76969 17.305 8.97454 17.3075 9.18459ZM10.3844 12.6923H8.65362C8.50061 12.6923 8.35387 12.7531 8.24567 12.8613C8.13748 12.9695 8.0767 13.1162 8.0767 13.2692V16.7307C8.0767 16.8837 8.13748 17.0305 8.24567 17.1387C8.35387 17.2469 8.50061 17.3077 8.65362 17.3077H10.3844V12.6923ZM16.1571 20.8165L16.1536 9.18516L11.5382 12.4159V17.5846L16.1536 20.8154L16.1571 20.8165Z" fill="white"/>
</svg>
